<svg width="54" height="44" viewBox="0 0 54 44" fill="none" xmlns="http://www.w3.org/2000/svg">
<path d="M48 43.3333H6C4.60761 43.3333 3.27225 42.7714 2.28769 41.7712C1.30312 40.771 0.75 39.4145 0.75 38V5.76796C0.808886 4.39407 1.3879 3.09638 2.36615 2.14583C3.34441 1.19527 4.64629 0.665327 6 0.666628H48C49.3924 0.666628 50.7277 1.22853 51.7123 2.22873C52.6969 3.22892 53.25 4.58547 53.25 5.99996V38C53.25 39.4145 52.6969 40.771 51.7123 41.7712C50.7277 42.7714 49.3924 43.3333 48 43.3333ZM6 10.9813V38H48V10.9813L27 25.2L6 10.9813ZM8.1 5.99996L27 18.8L45.9 5.99996H8.1Z" fill="white"/>
</svg>
