<svg width="384" height="614" viewBox="0 0 384 614" fill="none" xmlns="http://www.w3.org/2000/svg">
<path d="M38.4 38.375C38.4 17.1848 55.596 0 76.8 0H307.2C328.44 0 345.6 17.1848 345.6 38.375C345.6 59.5652 328.44 76.75 307.2 76.75H76.8C55.596 76.75 38.4 59.5652 38.4 38.375ZM0 191.875C0 149.543 34.38 115.125 76.8 115.125H307.2C349.56 115.125 384 149.543 384 191.875V537.25C384 579.582 349.56 614 307.2 614H76.8C34.38 614 0 579.582 0 537.25V191.875ZM307.2 268.625H76.8V460.5H307.2V268.625Z" fill="#B99052"/>
</svg>
