<?xml version="1.0" standalone="no"?>
<!DOCTYPE svg PUBLIC "-//W3C//DTD SVG 20010904//EN"
 "http://www.w3.org/TR/2001/REC-SVG-20010904/DTD/svg10.dtd">
<svg version="1.0" xmlns="http://www.w3.org/2000/svg"
 width="1040.000000pt" height="1040.000000pt" viewBox="0 0 1040.000000 1040.000000"
 preserveAspectRatio="xMidYMid meet">
<metadata>
Created by potrace 1.14, written by Peter Selinger 2001-2017
</metadata>
<g transform="translate(0.000000,1040.000000) scale(0.100000,-0.100000)"
fill="#000000" stroke="none">
<path d="M2929 10396 c-2 -2 -23 -6 -46 -9 -88 -13 -244 -79 -314 -134 -28
-21 -128 -122 -149 -149 -23 -30 -69 -117 -86 -166 -35 -98 -37 -297 -3 -360
7 -12 11 -24 10 -26 -4 -5 41 -99 67 -137 39 -58 108 -130 156 -162 22 -15 43
-31 46 -34 18 -22 141 -72 245 -99 67 -17 180 -18 2335 -19 1476 0 2283 3
2318 10 115 22 251 79 323 136 31 24 119 111 144 143 50 63 96 171 113 265 12
71 6 205 -11 233 -5 6 -6 12 -3 12 2 0 -5 24 -16 53 -11 28 -22 60 -25 70 -3
9 -9 17 -14 17 -5 0 -9 5 -9 10 0 20 -45 75 -118 147 -53 51 -97 83 -156 112
-44 21 -88 41 -96 44 -8 2 -18 5 -22 7 -4 1 -29 9 -55 18 -44 16 -234 17
-2339 20 -1260 1 -2292 0 -2295 -2z"/>
<path d="M2869 8446 c-3 -3 -27 -8 -54 -11 -28 -4 -60 -8 -72 -11 -60 -11 -79
-15 -95 -20 -9 -3 -25 -6 -35 -8 -77 -15 -302 -111 -394 -169 -138 -85 -236
-168 -341 -289 -32 -36 -58 -70 -58 -76 0 -6 -4 -12 -9 -14 -13 -5 -89 -133
-121 -203 -45 -99 -79 -210 -98 -319 -9 -56 -9 -6128 1 -6191 16 -108 19 -122
47 -205 21 -61 107 -249 119 -260 3 -3 22 -27 41 -55 19 -27 38 -51 42 -53 4
-2 8 -8 8 -14 0 -5 6 -15 13 -22 6 -7 37 -40 68 -72 188 -198 474 -358 739
-413 30 -6 66 -14 80 -17 14 -3 50 -8 80 -12 75 -10 4693 -9 4754 1 27 4 59
10 70 12 12 3 34 7 49 9 16 3 43 10 60 15 18 6 43 12 57 15 53 11 240 88 300
125 19 11 42 24 50 28 19 8 126 81 159 108 30 25 131 116 143 130 5 6 24 27
43 49 84 93 177 245 221 361 10 28 19 52 20 55 0 3 4 14 8 25 15 39 18 51 37
150 18 97 18 207 15 3160 -1 1683 -5 3071 -9 3085 -3 14 -8 34 -10 45 -10 42
-28 111 -34 125 -3 8 -7 22 -9 31 -8 37 -90 200 -140 274 -47 73 -165 212
-204 241 -8 7 -31 26 -50 43 -111 98 -376 246 -477 265 -12 3 -30 9 -40 14
-23 12 -197 51 -240 54 -18 1 -33 6 -33 10 0 8 -4693 11 -4701 4z m4501 -2623
c1 -45 1 -3176 0 -3201 0 -14 -5 -22 -12 -19 -7 2 -25 1 -39 -3 -15 -5 -32 -4
-39 0 -7 4 -25 4 -40 0 -15 -4 -33 -4 -40 0 -7 4 -25 4 -40 0 -15 -4 -33 -4
-40 0 -7 4 -25 4 -40 0 -15 -4 -33 -4 -40 0 -7 4 -25 4 -40 0 -15 -4 -33 -4
-40 0 -7 4 -25 4 -40 0 -15 -4 -33 -4 -40 0 -7 4 -25 4 -40 0 -15 -4 -33 -4
-40 0 -7 4 -25 4 -40 0 -15 -4 -33 -4 -40 0 -7 4 -25 4 -40 0 -15 -4 -33 -4
-40 0 -7 4 -25 4 -40 0 -15 -4 -33 -4 -40 0 -7 4 -25 4 -40 0 -15 -4 -33 -4
-40 0 -7 4 -25 4 -40 0 -15 -4 -33 -4 -40 0 -7 4 -25 4 -40 0 -15 -4 -33 -4
-40 0 -7 4 -25 4 -40 0 -15 -4 -33 -4 -40 0 -7 4 -25 4 -40 0 -15 -4 -33 -4
-40 0 -7 4 -25 4 -40 0 -15 -4 -33 -4 -40 0 -7 4 -25 4 -40 0 -15 -4 -33 -4
-40 0 -7 4 -25 4 -40 0 -15 -4 -33 -4 -40 0 -7 4 -25 4 -40 0 -15 -4 -33 -4
-40 0 -7 4 -25 4 -40 0 -15 -4 -33 -4 -40 0 -7 4 -25 4 -40 0 -15 -4 -33 -4
-40 0 -7 4 -25 4 -40 0 -15 -4 -33 -4 -40 0 -7 4 -25 4 -40 0 -15 -4 -33 -4
-40 0 -7 4 -25 4 -40 0 -15 -4 -33 -4 -40 0 -7 4 -25 4 -40 0 -15 -4 -33 -4
-40 0 -7 4 -25 4 -40 0 -15 -4 -33 -4 -40 0 -7 4 -25 4 -40 0 -15 -4 -33 -4
-40 0 -7 4 -24 5 -38 1 -14 -4 -47 -4 -74 -1 -26 4 -48 3 -48 -2 0 -5 -9 -4
-20 2 -11 6 -20 7 -20 2 0 -5 -23 -6 -50 -2 -28 4 -53 4 -55 0 -2 -4 -25 -4
-50 0 -25 4 -45 3 -45 -1 0 -5 -10 -5 -22 0 -13 5 -31 6 -40 2 -9 -3 -53 -4
-98 -1 -44 3 -80 1 -80 -3 0 -4 -9 -3 -20 3 -11 6 -20 7 -20 2 0 -5 -23 -6
-50 -2 -28 4 -53 4 -55 0 -2 -4 -25 -4 -50 0 -25 4 -45 3 -45 -1 0 -5 -10 -5
-22 0 -13 5 -31 6 -40 2 -9 -3 -53 -4 -98 -1 -44 3 -80 1 -80 -3 0 -4 -9 -3
-20 3 -11 6 -20 7 -20 2 0 -5 -23 -6 -50 -2 -28 4 -53 4 -55 0 -2 -4 -25 -4
-50 0 -25 4 -45 3 -45 -1 0 -5 -10 -5 -22 0 -13 5 -31 6 -40 2 -9 -3 -53 -4
-98 -1 -44 3 -80 1 -80 -3 0 -4 -9 -3 -20 3 -11 6 -20 7 -20 2 0 -5 -23 -6
-50 -2 -28 4 -53 4 -55 0 -2 -4 -25 -4 -50 0 -25 4 -45 3 -45 -1 0 -5 -10 -5
-22 0 -13 5 -31 6 -40 2 -9 -3 -53 -4 -98 -1 -44 3 -80 1 -80 -3 0 -4 -9 -3
-20 3 -11 6 -20 7 -20 2 0 -5 -11 -7 -25 -4 -24 4 -25 8 -25 71 -1 88 -1 3107
0 3149 l0 32 2170 0 2170 0 0 -27z"/>
</g>
</svg>
